HIERARCHY
ROOT Hips
{
	OFFSET 0.000000 0.000000 0.000000
	CHANNELS 6 Xposition Yposition Zposition Xrotation Yrotation Zrotation
	JOINT LeftUpLeg_virtual
	{
		OFFSET 0.000000 0.000000 0.000000
		CHANNELS 3 Xrotation Yrotation Zrotation
		JOINT LeftUpLeg
		{
			OFFSET 13.026900 -6.336304 -1.092800
			CHANNELS 3 Xrotation Yrotation Zrotation
			JOINT LeftLeg
			{
				OFFSET 0.524474 -46.096886 9.782700
				CHANNELS 3 Xrotation Yrotation Zrotation
				JOINT LeftFoot
				{
					OFFSET -0.524474 -53.427422 -12.948200
					CHANNELS 3 Xrotation Yrotation Zrotation
					JOINT LeftToeBase
					{
						OFFSET 0.192200 -14.009700 16.364100
						CHANNELS 3 Xrotation Yrotation Zrotation
						JOINT LeftToe_End
						{
							OFFSET -1.784700 -0.561700 9.474800
							CHANNELS 3 Xrotation Yrotation Zrotation
							End Site
							{
								OFFSET 0 0 0
							}
						}
					}
				}
			}
		}
	}
	JOINT RightUpLeg_virtual
	{
		OFFSET 0.000000 0.000000 0.000000
		CHANNELS 3 Xrotation Yrotation Zrotation
		JOINT RightUpLeg
		{
			OFFSET -12.883000 -6.336304 -1.092800
			CHANNELS 3 Xrotation Yrotation Zrotation
			JOINT RightLeg
			{
				OFFSET -0.524587 -46.096825 9.782800
				CHANNELS 3 Xrotation Yrotation Zrotation
				JOINT RightFoot
				{
					OFFSET 0.524587 -53.427383 -12.948300
					CHANNELS 3 Xrotation Yrotation Zrotation
					JOINT RightToeBase
					{
						OFFSET -0.192200 -14.009700 16.364100
						CHANNELS 3 Xrotation Yrotation Zrotation
						JOINT RightToe_End
						{
							OFFSET 1.784700 -0.561700 9.474800
							CHANNELS 3 Xrotation Yrotation Zrotation
							End Site
							{
								OFFSET 0 0 0
							}
						}
					}
				}
			}
		}
	}
	JOINT Spine_virtual
	{
		OFFSET 0.000000 0.000000 0.000000
		CHANNELS 3 Xrotation Yrotation Zrotation
		JOINT Spine
		{
			OFFSET 0.072000 7.257294 -0.789700
			CHANNELS 3 Xrotation Yrotation Zrotation
			JOINT Spine1
			{
				OFFSET 0.000000 12.508769 -0.658067
				CHANNELS 3 Xrotation Yrotation Zrotation
				JOINT Spine1_split
				{
					OFFSET 0.000000 12.508769 -0.658067
					CHANNELS 3 Xrotation Yrotation Zrotation
					JOINT Spine2
					{
						OFFSET 0.000000 12.508769 -0.658067
						CHANNELS 3 Xrotation Yrotation Zrotation
						JOINT Neck_virtual
						{
							OFFSET 0.000000 0.000000 0.000000
							CHANNELS 3 Xrotation Yrotation Zrotation
							JOINT Neck
							{
								OFFSET 0.000000 14.033295 7.520400
								CHANNELS 3 Xrotation Yrotation Zrotation
								JOINT Head
								{
									OFFSET 0.000000 8.198502 5.703100
									CHANNELS 3 Xrotation Yrotation Zrotation
									JOINT HeadTop_End
									{
										OFFSET 0.000000 17.760803 13.332701
										CHANNELS 3 Xrotation Yrotation Zrotation
										End Site
										{
											OFFSET 0 0 0
										}
									}
								}
							}
						}
						JOINT LeftShoulder_virtual
						{
							OFFSET 0.000000 0.000000 0.000000
							CHANNELS 3 Xrotation Yrotation Zrotation
							JOINT LeftShoulder
							{
								OFFSET 6.292450 5.785301 -0.669000
								CHANNELS 3 Xrotation Yrotation Zrotation
								JOINT LeftShoulder_split
								{
									OFFSET 6.292450 5.785301 -0.669000
									CHANNELS 3 Xrotation Yrotation Zrotation
									JOINT LeftArm
									{
										OFFSET 13.907140 -6.093903 1.965100
										CHANNELS 3 Xrotation Yrotation Zrotation
										JOINT LeftForeArm
										{
											OFFSET 34.140198 0.000000 0.000000
											CHANNELS 3 Xrotation Yrotation Zrotation
											JOINT LeftHand
											{
												OFFSET 40.960209 0.000000 0.000000
												CHANNELS 3 Xrotation Yrotation Zrotation
												End Site
												{
													OFFSET 0 0 0
												}
											}
										}
									}
								}
							}
						}
						JOINT RightShoulder_virtual
						{
							OFFSET 0.000000 0.000000 0.000000
							CHANNELS 3 Xrotation Yrotation Zrotation
							JOINT RightShoulder
							{
								OFFSET -6.292450 5.785301 -0.669000
								CHANNELS 3 Xrotation Yrotation Zrotation
								JOINT RightShoulder_split
								{
									OFFSET -6.292450 5.785301 -0.669000
									CHANNELS 3 Xrotation Yrotation Zrotation
									JOINT RightArm
									{
										OFFSET -13.907140 -6.093903 1.965100
										CHANNELS 3 Xrotation Yrotation Zrotation
										JOINT RightForeArm
										{
											OFFSET -34.140198 0.000000 0.000000
											CHANNELS 3 Xrotation Yrotation Zrotation
											JOINT RightHand
											{
												OFFSET -40.960209 0.000000 0.000000
												CHANNELS 3 Xrotation Yrotation Zrotation
												End Site
												{
													OFFSET 0 0 0
												}
											}
										}
									}
								}
							}
						}
					}
				}
			}
		}
	}
}
MOTION
Frames: 7
Frame Time: 0.03333333
0.116680 116.327332 -0.846794 0.000000 0.000000 0.000000 -0.284698 -0.007780 -2.770384 -17.910896 11.867102 13.598682 20.057878 11.513074 0.890441 -0.993848 2.857297 -7.910030 -0.473464 -0.000558 -0.000007 0.000000 0.000000 0.000000 -0.284698 -0.007780 -2.770384 -5.032514 -4.156288 2.135299 16.862359 -2.721834 3.749351 -11.360618 -0.157690 -2.887689 -0.586283 -0.000186 -0.000007 0.000000 0.000000 0.000000 -0.284698 -0.007780 -2.770384 0.568155 -1.382592 0.768548 0.884704 -0.154384 2.637805 0.000000 0.000000 0.000000 0.000000 0.000000 0.000000 0.868037 0.313564 2.550323 1.242740 -0.362780 0.178331 1.579608 0.543348 -5.747759 0.000000 0.000000 0.000000 0.868037 0.313564 2.550323 0.000018 -0.000019 -0.312853 0.000000 0.000000 0.000000 3.284672 -25.851919 -73.291577 2.210832 -20.459231 0.701241 0.000000 0.000000 0.000000 0.868037 0.313564 2.550323 0.000036 -0.000016 0.312819 0.000000 0.000000 0.000000 5.327960 -3.221400 75.188744 -0.286937 18.990004 0.139600 0.000000 0.000000 0.000000 
0.159592 115.943840 -1.594837 0.000000 0.000000 0.000000 -1.534203 -3.463914 -2.851356 -17.901965 16.067171 15.323690 21.267677 12.985136 1.029186 -1.698861 0.302649 -8.244212 -0.473470 -0.000558 -0.000004 0.000000 0.000000 0.000000 -1.534203 -3.463914 -2.851356 -7.394861 -3.981765 1.635202 21.213596 -0.857409 3.883175 -9.398457 2.300988 -2.051455 -1.495062 0.015614 -1.034054 0.000000 0.000000 0.000000 -1.534203 -3.463914 -2.851356 2.032777 -1.490781 0.471258 1.261821 -0.310409 2.528742 0.000000 0.000000 0.000000 0.000000 0.000000 0.000000 1.249909 0.054708 2.460124 0.302905 0.013837 0.261822 1.321120 3.847865 -5.697075 0.000000 0.000000 0.000000 1.249909 0.054708 2.460124 1.986222 0.122395 -0.120703 0.000000 0.000000 0.000000 8.094354 -24.899067 -68.198530 1.185690 -21.611473 0.480243 0.000000 0.000000 0.000000 1.249909 0.054708 2.460124 0.253463 0.912356 -0.080289 0.000000 0.000000 0.000000 3.636564 1.596726 74.135235 -0.350374 17.651417 0.182498 0.000000 0.000000 0.000000 
0.377698 115.265182 -3.033401 0.000000 0.000000 0.000000 -2.865441 -9.194650 -3.583618 -20.346051 25.003045 19.437738 23.364245 8.753218 0.725208 -2.810516 0.403130 -7.103984 -0.473489 -0.000544 -0.000017 0.000000 0.000000 0.000000 -2.865441 -9.194650 -3.583618 -11.328435 -3.878546 0.742145 26.882474 3.165719 4.305255 -8.674221 4.781014 0.252867 -0.549219 -0.000184 -0.000012 0.000000 0.000000 0.000000 -2.865441 -9.194650 -3.583618 5.272439 -1.849606 0.183152 2.096225 -0.673416 2.240414 0.000000 0.000000 0.000000 0.000000 0.000000 0.000000 2.092916 -0.513343 2.211525 -0.450334 0.594609 0.431790 -1.746708 10.004494 -5.052605 0.000000 0.000000 0.000000 2.092916 -0.513343 2.211525 4.117136 0.657555 1.005867 0.000000 0.000000 0.000000 15.953529 -29.708239 -62.779206 -1.655372 -26.434850 -0.428592 0.000000 0.000000 0.000000 2.092916 -0.513343 2.211525 0.913444 3.143517 -1.042106 0.000000 0.000000 0.000000 -2.332377 5.204004 73.608792 -0.324169 15.628841 0.222802 0.000000 0.000000 0.000000 
0.711260 114.699448 -4.275497 0.000000 0.000000 0.000000 -2.754441 -16.132929 -4.918090 -25.604945 33.198401 25.873872 25.450958 7.048698 0.647763 -3.924683 -0.930988 -6.685885 -0.473487 -0.000522 -0.000015 0.000000 0.000000 0.000000 -2.754441 -16.132929 -4.918090 -15.250129 -4.013507 0.086210 29.193980 8.109301 4.559042 -7.163624 7.920189 3.906162 -0.519181 -0.000174 -0.000009 0.000000 0.000000 0.000000 -2.754441 -16.132929 -4.918090 8.540807 -2.469268 0.075081 2.957238 -1.084281 1.834165 0.000000 0.000000 0.000000 0.000000 0.000000 0.000000 2.959114 -1.076849 1.840603 -0.965284 1.204220 0.645531 -6.422723 17.365862 -3.759208 0.000000 0.000000 0.000000 2.959114 -1.076849 1.840603 6.415023 1.672827 2.667599 0.000000 0.000000 0.000000 24.361739 -33.759303 -57.375577 -6.067107 -40.575295 -2.868222 0.000000 0.000000 0.000000 2.959114 -1.076849 1.840603 1.812763 5.937527 -2.243425 0.000000 0.000000 0.000000 -10.128202 7.510755 73.806013 -0.285823 15.294682 0.285189 0.000000 0.000000 0.000000 
1.135448 114.110741 -5.199112 0.000000 0.000000 0.000000 -1.825322 -22.584487 -6.484309 -31.581227 37.011381 32.182362 27.796920 5.542390 0.601645 -4.987378 0.881085 -6.676413 -0.473504 -0.000518 -0.000006 0.000000 0.000000 0.000000 -1.825322 -22.584487 -6.484309 -18.972845 -4.507010 -0.465165 30.380845 8.718479 4.308386 -6.648230 12.876562 8.457229 -0.450851 -0.000159 0.000002 0.000000 0.000000 0.000000 -1.825322 -22.584487 -6.484309 9.958651 -3.498453 0.028536 3.429638 -1.496039 1.388182 0.000000 0.000000 0.000000 0.000000 0.000000 0.000000 3.431719 -1.484880 1.407565 -1.293186 1.708813 0.861393 -9.657056 24.130362 -1.972003 0.000000 0.000000 0.000000 3.431719 -1.484880 1.407565 8.893604 3.198597 4.454276 0.000000 0.000000 0.000000 42.449332 -35.390301 -48.369993 -23.938548 -65.563703 -19.732722 0.000000 0.000000 0.000000 3.431719 -1.484880 1.407565 2.678482 8.564445 -3.310789 0.000000 0.000000 0.000000 -14.591330 8.516145 74.667191 -0.310551 18.940714 0.385689 0.000000 0.000000 0.000000 
1.617077 113.638756 -5.911194 0.000000 0.000000 0.000000 -1.037013 -28.304470 -8.015648 -37.138344 39.198299 38.079080 29.806061 3.596813 0.537962 -5.885695 3.809188 -6.552603 -0.473478 -0.000547 -0.000005 0.000000 0.000000 0.000000 -1.037013 -28.304470 -8.015648 -21.064986 -5.134666 -1.203989 30.080597 7.299552 3.757539 -7.150347 14.561919 11.604351 -0.299983 -0.000169 0.000007 0.000000 0.000000 0.000000 -1.037013 -28.304470 -8.015648 10.432059 -4.449000 0.038261 3.637076 -1.875076 0.980247 0.000000 0.000000 0.000000 0.000000 0.000000 0.000000 3.640928 -1.857325 1.010850 -1.437664 2.139209 1.084523 -11.560830 29.951592 -0.498631 0.000000 0.000000 0.000000 3.640928 -1.857325 1.010850 11.919291 5.346384 5.819007 0.000000 0.000000 0.000000 66.158025 -33.416202 -40.464725 -132.876399 -70.849238 -130.964356 0.000000 0.000000 0.000000 3.640928 -1.857325 1.010850 3.107979 10.330075 -3.802348 0.000000 0.000000 0.000000 -14.427521 7.308033 75.303785 -0.515239 29.972004 0.609896 0.000000 0.000000 0.000000 
2.127663 113.334030 -6.550968 0.000000 0.000000 0.000000 -0.668667 -33.034784 -8.882640 -41.198492 41.052186 42.475171 31.017211 1.948536 0.503746 -6.457153 6.423479 -6.331976 -0.473487 -0.000522 -0.000009 0.000000 0.000000 0.000000 -0.668667 -33.034784 -8.882640 -21.367128 -5.048149 -2.584620 29.574074 4.216529 3.055105 -9.668625 3.900493 8.163432 -0.120952 -0.000268 -0.000002 0.000000 0.000000 0.000000 -0.668667 -33.034784 -8.882640 10.800816 -5.242792 0.105763 3.684935 -2.201690 0.688266 0.000000 0.000000 0.000000 0.000000 0.000000 0.000000 3.691413 -2.178593 0.726473 -1.492639 2.480434 1.322213 -12.174893 34.727410 -0.580062 0.000000 0.000000 0.000000 3.691413 -2.178593 0.726473 15.243141 8.629490 7.416201 0.000000 0.000000 0.000000 81.584451 -39.178190 -35.945062 -147.371823 -55.990302 -147.750939 0.000000 0.000000 0.000000 3.691413 -2.178593 0.726473 2.519587 11.424372 -2.583014 0.000000 0.000000 0.000000 -9.865775 5.223053 73.224068 -0.979016 46.381141 0.994917 0.000000 0.000000 0.000000 
